<svg width="14" height="14" viewBox="0 0 14 14" fill="none" xmlns="http://www.w3.org/2000/svg">
<path d="M7.01598 14C5.0541 14 3.39418 13.321 2.03619 11.9631C0.678731 10.6056 0 8.946 0 6.98417C0 5.19123 0.584665 3.63527 1.754 2.3163C2.92333 0.99784 4.41747 0.228177 6.23643 0.00730816C6.56124 -0.0316687 6.8146 0.0852619 6.99649 0.3581C7.17839 0.630938 7.17189 0.916768 6.977 1.21559C6.75613 1.55339 6.59034 1.91068 6.47965 2.28745C6.36947 2.66423 6.31438 3.0605 6.31438 3.47625C6.31438 4.64555 6.72365 5.63946 7.54218 6.45798C8.36071 7.27649 9.35464 7.68575 10.524 7.68575C10.9267 7.68575 11.3264 7.62728 11.7229 7.51035C12.1189 7.39342 12.4729 7.23102 12.7847 7.02314C13.0575 6.84125 13.3369 6.83138 13.6227 6.99352C13.9085 7.15618 14.032 7.41291 13.993 7.7637C13.8111 9.55664 13.0479 11.0443 11.7034 12.2266C10.3584 13.4089 8.79596 14 7.01598 14Z" fill="#416BFF"/>
</svg>
