<svg width="51" height="30" viewBox="0 0 51 30" fill="none" xmlns="http://www.w3.org/2000/svg">
<rect x="0.997803" y="0.500854" width="49" height="29" rx="9.5" stroke="#F9A23A"/>
<g clip-path="url(#clip0_0_1)">
<path d="M14.3125 15.9691C13.7826 18.1119 11.6299 19.416 9.50426 18.8816C7.37948 18.3474 6.08599 16.1769 6.61613 14.0342C7.14577 11.8911 9.29845 10.5869 11.4235 11.1211C13.549 11.6554 14.8424 13.8261 14.3125 15.9691V15.9691Z" fill="#F7931A"/>
<path d="M12.2136 14.4315C12.2926 13.8992 11.8906 13.6131 11.341 13.4222L11.5193 12.7012L11.084 12.5919L10.9105 13.2938C10.796 13.2651 10.6785 13.238 10.5617 13.2111L10.7365 12.5045L10.3015 12.3951L10.1231 13.1158C10.0283 13.0941 9.93535 13.0726 9.84509 13.05L9.84558 13.0477L9.24527 12.8966L9.12948 13.3653C9.12948 13.3653 9.45244 13.44 9.44563 13.4446C9.62193 13.489 9.65379 13.6066 9.64846 13.6998L9.44538 14.5212C9.45753 14.5243 9.47327 14.5288 9.49063 14.5358C9.47613 14.5322 9.46063 14.5282 9.44463 14.5243L9.15997 15.6749C9.1384 15.7289 9.08373 15.8099 8.96049 15.7792C8.96483 15.7856 8.64409 15.6996 8.64409 15.6996L8.42799 16.2019L8.99446 16.3443C9.09984 16.3709 9.20312 16.3988 9.30478 16.425L9.12464 17.1543L9.55944 17.2637L9.73785 16.5422C9.85662 16.5747 9.97192 16.6047 10.0847 16.6329L9.90696 17.351L10.3423 17.4604L10.5224 16.7325C11.2647 16.8742 11.8228 16.817 12.0578 16.1402C12.2471 15.5952 12.0483 15.2808 11.6578 15.0758C11.9422 15.0097 12.1565 14.8211 12.2136 14.4315V14.4315ZM11.219 15.8376C11.0845 16.3825 10.1744 16.0879 9.87931 16.0141L10.1183 15.0479C10.4134 15.1222 11.3596 15.2692 11.219 15.8376ZM11.3537 14.4236C11.2309 14.9193 10.4734 14.6675 10.2277 14.6057L10.4444 13.7295C10.6901 13.7912 11.4815 13.9065 11.3537 14.4236Z" fill="white"/>
<path d="M18.1238 13.4215C18.4455 13.4215 18.7235 13.4796 18.957 13.5937C19.1917 13.709 19.3854 13.8642 19.5407 14.0595C19.694 14.2557 19.808 14.4851 19.8817 14.748C19.9548 15.0116 19.9915 15.295 19.9915 15.5983C19.9915 16.0643 19.9068 16.5046 19.7359 16.9196C19.5649 17.3352 19.3329 17.6957 19.0379 18.0032C18.743 18.3103 18.3949 18.5524 17.9935 18.7313C17.5926 18.9103 17.1568 18.9998 16.6889 18.9998C16.6284 18.9998 16.5221 18.998 16.3718 18.9949C16.2215 18.9918 16.0488 18.9762 15.8554 18.9498C15.6608 18.9224 15.455 18.8819 15.2376 18.8277C15.0204 18.7744 14.8141 18.6998 14.6198 18.605L16.357 11.2457L17.913 11.0025L17.291 13.6141C17.4241 13.5536 17.5583 13.5067 17.6922 13.4726C17.8262 13.439 17.97 13.4215 18.1238 13.4215V13.4215ZM16.8186 17.7553C17.0529 17.7553 17.2737 17.6972 17.4812 17.5831C17.6892 17.4688 17.8687 17.3146 18.0191 17.1224C18.1695 16.9294 18.2885 16.7121 18.3753 16.4692C18.4621 16.2263 18.506 15.973 18.506 15.7093C18.506 15.3855 18.4523 15.1328 18.3453 14.9502C18.2383 14.7683 18.0403 14.6768 17.7528 14.6768C17.6586 14.6768 17.5372 14.695 17.3867 14.7273C17.2357 14.7617 17.1005 14.8331 16.9794 14.9405L16.3171 17.7139C16.357 17.7211 16.3924 17.7278 16.4225 17.7342C16.452 17.7411 16.4846 17.7459 16.5171 17.7493C16.5514 17.7532 16.5907 17.7552 16.6382 17.7552C16.6857 17.7552 16.7451 17.7553 16.8186 17.7553V17.7553Z" fill="#4D4D4D"/>
<path d="M21.6051 18.8589H20.119L21.374 13.5344H22.8703L21.6051 18.8589ZM22.3283 12.8856C22.1209 12.8856 21.9328 12.8234 21.7659 12.6986C21.5977 12.5746 21.5144 12.3838 21.5144 12.1265C21.5144 11.985 21.5429 11.8523 21.5994 11.727C21.6568 11.602 21.7318 11.4944 21.8258 11.4029C21.9197 11.3121 22.0284 11.2396 22.1519 11.185C22.2761 11.1313 22.4083 11.1044 22.5491 11.1044C22.7564 11.1044 22.9435 11.1666 23.111 11.2914C23.2779 11.4168 23.3618 11.6076 23.3618 11.8635C23.3618 12.0055 23.3334 12.1388 23.2764 12.2638C23.2197 12.3888 23.1447 12.4964 23.0507 12.5879C22.9576 12.6787 22.8479 12.751 22.7247 12.8051C22.6003 12.8597 22.4687 12.8856 22.3283 12.8856Z" fill="#4D4D4D"/>
<path d="M24.1728 12.2078L25.7293 11.9646L25.3471 13.5341H27.0142L26.7131 14.7688H25.0561L24.6148 16.6313C24.5741 16.7866 24.551 16.9316 24.5446 17.0663C24.5373 17.2017 24.5543 17.3179 24.5944 17.4158C24.6343 17.5139 24.7061 17.5895 24.8103 17.643C24.9139 17.6974 25.0623 17.7248 25.257 17.7248C25.4173 17.7248 25.5735 17.7094 25.7245 17.6789C25.8746 17.6489 26.0268 17.6072 26.1808 17.5525L26.2916 18.707C26.0907 18.7813 25.8733 18.8451 25.639 18.8989C25.4043 18.9534 25.1264 18.9796 24.8053 18.9796C24.3436 18.9796 23.9857 18.9105 23.7307 18.7729C23.476 18.6343 23.296 18.4449 23.1882 18.2052C23.082 17.9663 23.0345 17.6909 23.0478 17.3807C23.0615 17.0697 23.108 16.7428 23.1882 16.3986L24.1728 12.2078V12.2078Z" fill="#4D4D4D"/>
<path d="M26.9487 16.7327C26.9487 16.2741 27.0223 15.8416 27.1695 15.4367C27.3164 15.0315 27.528 14.6771 27.8027 14.373C28.0763 14.0703 28.4097 13.8306 28.8021 13.6546C29.1926 13.4796 29.6299 13.3914 30.1118 13.3914C30.4134 13.3914 30.6829 13.4201 30.9199 13.4777C31.1579 13.5359 31.3733 13.611 31.5681 13.7052L31.0555 14.8802C30.9216 14.8255 30.7827 14.7772 30.639 14.7335C30.4951 14.6888 30.3196 14.6673 30.1119 14.6673C29.6159 14.6673 29.2237 14.8397 28.9319 15.1833C28.6411 15.5272 28.4947 15.9901 28.4947 16.5707C28.4947 16.9148 28.5684 17.193 28.7162 17.4059C28.8632 17.6188 29.1348 17.7247 29.5292 17.7247C29.7239 17.7247 29.9117 17.7042 30.0916 17.6642C30.2728 17.6237 30.4329 17.5727 30.5739 17.5124L30.6848 18.7169C30.4969 18.7904 30.2896 18.8568 30.0622 18.9149C29.8343 18.971 29.5631 19.0001 29.2485 19.0001C28.8333 19.0001 28.4818 18.9389 28.1943 18.8183C27.9067 18.6958 27.669 18.5332 27.4818 18.3272C27.2936 18.1207 27.1585 17.8795 27.0749 17.6028C26.9913 17.3263 26.9487 17.0358 26.9487 16.7327V16.7327Z" fill="#4D4D4D"/>
<path d="M33.5507 19.0001C33.1959 19.0001 32.8879 18.9456 32.6265 18.8378C32.3659 18.7299 32.15 18.5785 31.9793 18.3823C31.8084 18.187 31.6804 17.9557 31.5928 17.689C31.5051 17.4225 31.463 17.1274 31.463 16.8041C31.463 16.3984 31.5275 15.9929 31.6581 15.5886C31.788 15.1833 31.9808 14.8192 32.236 14.4956C32.4891 14.1715 32.8014 13.9065 33.1692 13.6999C33.5365 13.4946 33.959 13.3914 34.4336 13.3914C34.7819 13.3914 35.0884 13.446 35.3533 13.5539C35.617 13.6615 35.8343 13.8141 36.006 14.0093C36.1758 14.2056 36.3049 14.436 36.3917 14.703C36.4791 14.969 36.5222 15.2648 36.5222 15.5884C36.5222 15.9928 36.4585 16.3983 36.332 16.8039C36.2055 17.2075 36.0176 17.5725 35.7697 17.8969C35.5222 18.2205 35.2127 18.4854 34.841 18.6912C34.4699 18.8969 34.0394 19.0001 33.5507 19.0001V19.0001ZM34.2934 14.6675C34.0731 14.6675 33.8783 14.732 33.7116 14.8593C33.5442 14.9882 33.4036 15.1502 33.2903 15.3456C33.1757 15.5418 33.0908 15.7558 33.0334 15.9884C32.9765 16.2216 32.9486 16.4419 32.9486 16.6513C32.9486 16.9892 33.0027 17.2523 33.1089 17.4417C33.2167 17.63 33.4102 17.7248 33.6915 17.7248C33.9126 17.7248 34.1063 17.6608 34.2741 17.532C34.4405 17.4042 34.5812 17.242 34.6954 17.0463C34.8092 16.8511 34.8949 16.6364 34.9523 16.4034C35.0084 16.1711 35.0371 15.9494 35.0371 15.7404C35.0371 15.4035 34.9833 15.1397 34.876 14.9506C34.7689 14.7622 34.5745 14.6675 34.2934 14.6675Z" fill="#4D4D4D"/>
<path d="M38.1416 18.8589H36.6542L37.9093 13.5344H39.4064L38.1416 18.8589V18.8589ZM38.8637 12.8856C38.6564 12.8856 38.4684 12.8234 38.3018 12.6986C38.1344 12.5746 38.0504 12.3838 38.0504 12.1265C38.0504 11.985 38.0793 11.8523 38.1359 11.727C38.1926 11.602 38.2681 11.4944 38.3621 11.4029C38.4554 11.3121 38.5651 11.2396 38.6884 11.185C38.8119 11.1313 38.944 11.1044 39.0844 11.1044C39.2922 11.1044 39.4799 11.1666 39.647 11.2914C39.8142 11.4168 39.8987 11.6076 39.8987 11.8635C39.8987 12.0055 39.8687 12.1388 39.8125 12.2638C39.7563 12.3888 39.6808 12.4964 39.5872 12.5879C39.493 12.6787 39.3847 12.751 39.2612 12.8051C39.1367 12.8597 39.0048 12.8856 38.8637 12.8856V12.8856Z" fill="#4D4D4D"/>
<path d="M40.4774 13.7765C40.5903 13.7432 40.7162 13.7032 40.8532 13.6597C40.9907 13.6162 41.1443 13.5757 41.3159 13.5392C41.4856 13.5016 41.6772 13.4711 41.8878 13.4475C42.0985 13.4233 42.3385 13.4116 42.6052 13.4116C43.389 13.4116 43.9293 13.6417 44.2276 14.1006C44.5256 14.5595 44.5772 15.1874 44.3838 15.9834L43.7002 18.8584H42.2042L42.8668 16.0439C42.9072 15.8682 42.9389 15.6983 42.9624 15.5323C42.9861 15.3678 42.9847 15.2228 42.957 15.0973C42.9306 14.9733 42.8684 14.8718 42.7718 14.7932C42.6737 14.7158 42.5256 14.6769 42.3246 14.6769C42.1308 14.6769 41.9337 14.6979 41.7325 14.7384L40.7584 18.8583H39.2618L40.4774 13.7765V13.7765Z" fill="#4D4D4D"/>
</g>
<defs>
<clipPath id="clip0_0_1">
<rect width="38" height="8" fill="white" transform="translate(6.4978 11.0009)"/>
</clipPath>
</defs>
</svg>
