<svg width="38" height="9" viewBox="0 0 38 9" fill="none" xmlns="http://www.w3.org/2000/svg">
<path d="M7.81466 5.46817C7.28477 7.61101 5.1321 8.91512 3.00645 8.38075C0.881676 7.84651 -0.411814 5.67604 0.118327 3.53333C0.647971 1.39023 2.80065 0.0860053 4.92567 0.620247C7.05119 1.15449 8.34455 3.3252 7.81466 5.46817Z" fill="white"/>
<path d="M5.71581 3.93057C5.79478 3.39833 5.39284 3.11221 4.84324 2.92134L5.02152 2.20035L4.58622 2.09097L4.41265 2.79296C4.29822 2.76421 4.18068 2.73709 4.06389 2.71022L4.23871 2.0036L3.80366 1.89423L3.62525 2.61496C3.53053 2.59321 3.43754 2.57172 3.34729 2.54909L3.34778 2.54684L2.74747 2.39572L2.63167 2.86446C2.63167 2.86446 2.95464 2.93908 2.94782 2.94371C3.12412 2.98808 3.15598 3.10571 3.15065 3.19895L2.94757 4.02032C2.95972 4.02344 2.97547 4.02794 2.99283 4.03494C2.97832 4.03132 2.96283 4.02732 2.94683 4.02344L2.66217 5.17405C2.6406 5.22805 2.58593 5.30905 2.46269 5.2783C2.46703 5.28467 2.14629 5.19868 2.14629 5.19868L1.93019 5.70104L2.49666 5.84341C2.60204 5.87004 2.70532 5.89791 2.80698 5.92416L2.62684 6.6534L3.06164 6.76278L3.24004 6.04129C3.35882 6.07379 3.47412 6.10379 3.58694 6.13204L3.40916 6.85015L3.84445 6.95952L4.02459 6.23166C4.76686 6.37328 5.32502 6.31616 5.55997 5.63929C5.74928 5.0943 5.55054 4.77993 5.16 4.57494C5.44442 4.50881 5.65865 4.32019 5.71581 3.93057ZM4.72124 5.33667C4.58672 5.88166 3.67658 5.58704 3.38151 5.51317L3.62054 4.54706C3.91561 4.62131 4.86183 4.76831 4.72124 5.33667ZM4.85588 3.92269C4.73314 4.41844 3.97562 4.16657 3.72989 4.10482L3.94661 3.22858C4.19234 3.29033 4.9837 3.40558 4.85588 3.92269Z" fill="white"/>
<path d="M11.626 2.92061C11.9477 2.92061 12.2257 2.97873 12.4592 3.09285C12.6939 3.2081 12.8876 3.36335 13.0429 3.5586C13.1962 3.75485 13.3102 3.98422 13.3839 4.24709C13.457 4.51071 13.4937 4.79408 13.4937 5.09745C13.4937 5.56344 13.409 6.00369 13.2381 6.41868C13.0671 6.8343 12.8351 7.19479 12.5401 7.50229C12.2452 7.80941 11.8971 8.05153 11.4957 8.2304C11.0948 8.4094 10.659 8.4989 10.1911 8.4989C10.1306 8.4989 10.0243 8.49715 9.87399 8.49402C9.72373 8.4909 9.55102 8.47527 9.35761 8.4489C9.16296 8.42152 8.95716 8.38102 8.73982 8.32677C8.52261 8.27353 8.3163 8.1989 8.12202 8.10415L9.85924 0.74477L11.4152 0.501648L10.7932 3.11323C10.9263 3.05273 11.0605 3.00586 11.1944 2.97173C11.3284 2.93811 11.4722 2.92061 11.626 2.92061ZM10.3208 7.25442C10.5551 7.25442 10.7759 7.19629 10.9834 7.08217C11.1914 6.96792 11.3709 6.81367 11.5213 6.62155C11.6717 6.42855 11.7907 6.21118 11.8775 5.96831C11.9643 5.72544 12.0082 5.47207 12.0082 5.20845C12.0082 4.88458 11.9545 4.63196 11.8475 4.44934C11.7405 4.26746 11.5425 4.17596 11.255 4.17596C11.1608 4.17596 11.0394 4.19409 10.8889 4.22646C10.7379 4.26084 10.6027 4.33221 10.4816 4.43959L9.81932 7.21304C9.85924 7.22017 9.89457 7.22692 9.9247 7.23329C9.9542 7.24017 9.98681 7.24504 10.0193 7.24842C10.0536 7.25229 10.0929 7.25429 10.1404 7.25429C10.1879 7.25429 10.2473 7.25442 10.3208 7.25442Z" fill="white"/>
<path d="M15.1073 8.35802H13.6212L14.8762 3.03348H16.3725L15.1073 8.35802ZM15.8305 2.38474C15.6231 2.38474 15.435 2.32249 15.2681 2.19774C15.0999 2.07374 15.0166 1.88287 15.0166 1.62562C15.0166 1.48413 15.0451 1.35138 15.1016 1.22613C15.159 1.10113 15.234 0.99351 15.328 0.902011C15.4219 0.811262 15.5306 0.738762 15.6541 0.684138C15.7783 0.630389 15.9105 0.603516 16.0513 0.603516C16.2586 0.603516 16.4457 0.665765 16.6132 0.790513C16.7801 0.915886 16.864 1.10676 16.864 1.36263C16.864 1.50463 16.8356 1.63787 16.7786 1.76287C16.7219 1.88787 16.6469 1.99549 16.5529 2.08699C16.4598 2.17786 16.3501 2.25011 16.2269 2.30424C16.1025 2.35886 15.9708 2.38474 15.8305 2.38474Z" fill="white"/>
<path d="M17.675 1.70687L19.2315 1.46375L18.8493 3.03322H20.5163L20.2153 4.26795H18.5583L18.117 6.13042C18.0763 6.28567 18.0532 6.43067 18.0468 6.56541C18.0395 6.70079 18.0565 6.81704 18.0966 6.91491C18.1365 7.01304 18.2083 7.08866 18.3125 7.14216C18.4161 7.19653 18.5645 7.22391 18.7592 7.22391C18.9195 7.22391 19.0757 7.20853 19.2267 7.17803C19.3768 7.14803 19.529 7.10628 19.683 7.05166L19.7938 8.20614C19.5929 8.28039 19.3755 8.34426 19.1412 8.39801C18.9065 8.45251 18.6286 8.47876 18.3075 8.47876C17.8458 8.47876 17.4879 8.40964 17.2328 8.27202C16.9782 8.13339 16.7982 7.94402 16.6904 7.70428C16.5842 7.4654 16.5367 7.19003 16.55 6.87979C16.5637 6.56879 16.6102 6.24192 16.6904 5.89768L17.675 1.70687Z" fill="white"/>
<path d="M20.4509 6.23182C20.4509 5.77321 20.5245 5.34072 20.6717 4.93585C20.8186 4.5306 21.0302 4.17623 21.3048 3.87211C21.5785 3.56949 21.9119 3.32974 22.3043 3.15375C22.6948 2.97875 23.1321 2.8905 23.614 2.8905C23.9156 2.8905 24.185 2.91925 24.4221 2.97688C24.6601 3.035 24.8755 3.11013 25.0703 3.20438L24.5577 4.37936C24.4238 4.32461 24.2848 4.27636 24.1411 4.23261C23.9973 4.18798 23.8218 4.16648 23.6141 4.16648C23.1181 4.16648 22.7259 4.33886 22.4341 4.68247C22.1433 5.02634 21.9969 5.48921 21.9969 6.06983C21.9969 6.41395 22.0705 6.69219 22.2183 6.90507C22.3654 7.11794 22.637 7.22381 23.0314 7.22381C23.226 7.22381 23.4139 7.20331 23.5938 7.16331C23.775 7.12281 23.9351 7.07181 24.0761 7.01156L24.187 8.21605C23.9991 8.28955 23.7918 8.35592 23.5644 8.41404C23.3365 8.47017 23.0652 8.49929 22.7507 8.49929C22.3355 8.49929 21.984 8.43804 21.6965 8.31742C21.4089 8.19492 21.1712 8.0323 20.984 7.8263C20.7958 7.6198 20.6606 7.37868 20.5771 7.10194C20.4935 6.82544 20.4509 6.53494 20.4509 6.23182Z" fill="white"/>
<path d="M27.0529 8.49929C26.6981 8.49929 26.3901 8.44479 26.1287 8.33692C25.8681 8.22904 25.6522 8.07767 25.4815 7.88143C25.3106 7.68618 25.1826 7.45481 25.095 7.18818C25.0073 6.92169 24.9651 6.62657 24.9651 6.3032C24.9651 5.89758 25.0297 5.49209 25.1603 5.08772C25.2902 4.68248 25.483 4.31836 25.7382 3.99474C25.9913 3.67062 26.3036 3.40562 26.6714 3.199C27.0387 2.99375 27.4612 2.8905 27.9358 2.8905C28.2841 2.8905 28.5906 2.94513 28.8555 3.053C29.1192 3.16062 29.3365 3.31325 29.5082 3.50849C29.678 3.70474 29.8071 3.93511 29.8939 4.20211C29.9813 4.4681 30.0244 4.76397 30.0244 5.08759C30.0244 5.49196 29.9607 5.89746 29.8342 6.30307C29.7076 6.70669 29.5198 7.07169 29.2719 7.39606C29.0244 7.71968 28.7149 7.98455 28.3432 8.1903C27.972 8.39604 27.5416 8.49929 27.0529 8.49929ZM27.7956 4.16661C27.5753 4.16661 27.3805 4.23111 27.2138 4.35848C27.0464 4.48735 26.9058 4.64935 26.7925 4.84472C26.6779 5.04097 26.593 5.25497 26.5356 5.48759C26.4787 5.72071 26.4508 5.94108 26.4508 6.15045C26.4508 6.48832 26.5049 6.75144 26.6111 6.94082C26.7189 7.12919 26.9124 7.22394 27.1937 7.22394C27.4148 7.22394 27.6085 7.15994 27.7763 7.03119C27.9427 6.90332 28.0834 6.74119 28.1976 6.54544C28.3114 6.3502 28.397 6.13558 28.4545 5.90258C28.5106 5.67021 28.5393 5.44859 28.5393 5.23959C28.5393 4.9026 28.4854 4.63885 28.3782 4.44973C28.2711 4.26136 28.0767 4.16661 27.7956 4.16661Z" fill="white"/>
<path d="M31.6438 8.35802H30.1564L31.4115 3.03348H32.9086L31.6438 8.35802ZM32.3659 2.38474C32.1586 2.38474 31.9706 2.32249 31.804 2.19774C31.6366 2.07374 31.5526 1.88287 31.5526 1.62562C31.5526 1.48413 31.5815 1.35138 31.6381 1.22613C31.6948 1.10113 31.7703 0.99351 31.8643 0.902011C31.9576 0.811262 32.0673 0.738762 32.1906 0.684138C32.3141 0.630389 32.4462 0.603516 32.5866 0.603516C32.7944 0.603516 32.9821 0.665765 33.1492 0.790513C33.3164 0.915886 33.4009 1.10676 33.4009 1.36263C33.4009 1.50463 33.3709 1.63787 33.3147 1.76287C33.2585 1.88787 33.183 1.99549 33.0894 2.08699C32.9952 2.17786 32.8869 2.25011 32.7634 2.30424C32.6389 2.35886 32.507 2.38474 32.3659 2.38474Z" fill="white"/>
<path d="M33.9796 3.27558C34.0925 3.24233 34.2184 3.20233 34.3554 3.15883C34.4929 3.11533 34.6465 3.07483 34.8181 3.03833C34.9878 3.00071 35.1794 2.97021 35.39 2.94658C35.6007 2.92246 35.8407 2.91071 36.1074 2.91071C36.8912 2.91071 37.4315 3.14083 37.7298 3.5997C38.0278 4.05857 38.0794 4.68655 37.886 5.48254L37.2024 8.3575H35.7064L36.369 5.54304C36.4094 5.3673 36.4411 5.19742 36.4646 5.03142C36.4883 4.86693 36.4869 4.72193 36.4592 4.59643C36.4328 4.47243 36.3706 4.37093 36.274 4.29231C36.1759 4.21494 36.0278 4.17606 35.8268 4.17606C35.633 4.17606 35.4359 4.19706 35.2347 4.23756L34.2606 8.35737H32.764L33.9796 3.27558Z" fill="white"/>
</svg>
