<svg width="14" height="16" viewBox="0 0 14 16" fill="none" xmlns="http://www.w3.org/2000/svg">
<path fill-rule="evenodd" clip-rule="evenodd" d="M5.12739 0.13719C5.18381 0.0807691 5.26034 0.0490723 5.34013 0.0490723H7.74695C7.82674 0.0490723 7.90326 0.0807691 7.95968 0.13719C8.0161 0.193611 8.0478 0.270134 8.0478 0.349925V0.951629C8.0478 1.03142 8.0161 1.10794 7.95968 1.16436C7.90326 1.22078 7.82674 1.25248 7.74695 1.25248H7.29567V2.04929C8.78233 2.22047 10.1192 2.89077 11.1326 3.8893L11.7674 3.37575L11.4832 3.02495C11.433 2.96298 11.4095 2.88362 11.4178 2.8043C11.4261 2.72498 11.4655 2.6522 11.5275 2.60195L11.9953 2.22318C12.026 2.19833 12.0613 2.17977 12.0992 2.16856C12.1371 2.15736 12.1768 2.15373 12.2161 2.15787C12.2554 2.16202 12.2935 2.17387 12.3282 2.19274C12.3629 2.21161 12.3936 2.23714 12.4184 2.26786L13.9329 4.13856C13.9831 4.20053 14.0067 4.27989 13.9984 4.35921C13.9901 4.43853 13.9506 4.51131 13.8887 4.56156L13.4209 4.94033C13.3902 4.96518 13.3548 4.98374 13.317 4.99495C13.2791 5.00615 13.2393 5.00979 13.2 5.00564C13.1607 5.00149 13.1227 4.98964 13.0879 4.97077C13.0532 4.9519 13.0226 4.92637 12.9977 4.89565L12.7137 4.54486L12.0762 5.06097C12.7375 6.10378 13.0881 7.31335 13.0871 8.54815C13.0871 12.1558 10.1512 15.0917 6.54354 15.0917C2.93587 15.0917 0 12.1558 0 8.54815C0 5.195 2.53679 2.42355 5.79141 2.04899V1.25248H5.34013C5.26034 1.25248 5.18381 1.22078 5.12739 1.16436C5.07097 1.10794 5.03928 1.03142 5.03928 0.951629V0.349925C5.03928 0.270134 5.07097 0.193611 5.12739 0.13719ZM9.14663 4.68853C8.37537 4.17319 7.46862 3.89813 6.54103 3.89813V8.58809L9.85733 11.9044C10.5132 11.2485 10.9599 10.4128 11.1409 9.50305C11.3218 8.59329 11.229 7.6503 10.874 6.79332C10.519 5.93634 9.91789 5.20387 9.14663 4.68853Z" fill="#416BFF"/>
</svg>
