<svg width="60" height="30" viewBox="0 0 60 30" fill="none" xmlns="http://www.w3.org/2000/svg">
<path d="M0.5 5C0.5 2.51472 2.51472 0.5 5 0.5H29.5V29.5H5C2.51472 29.5 0.5 27.4853 0.5 25V5Z" fill="black" stroke="black"/>
<path d="M59.5 25C59.5 27.4853 57.4853 29.5 55 29.5L30.5 29.5L30.5 0.499997L55 0.5C57.4853 0.5 59.5 2.51472 59.5 5L59.5 25Z" fill="#F4F4F4" stroke="black"/>
<mask id="path-3-inside-1_865_230" fill="white">
<path d="M30 25C27.3478 25 24.8043 23.9464 22.9289 22.0711C21.0536 20.1957 20 17.6522 20 15C20 12.3478 21.0536 9.8043 22.9289 7.92893C24.8043 6.05357 27.3478 5 30 5L30 15L30 25Z"/>
</mask>
<path d="M30 25C27.3478 25 24.8043 23.9464 22.9289 22.0711C21.0536 20.1957 20 17.6522 20 15C20 12.3478 21.0536 9.8043 22.9289 7.92893C24.8043 6.05357 27.3478 5 30 5L30 15L30 25Z" fill="#F4F4F4" stroke="black" stroke-width="2" mask="url(#path-3-inside-1_865_230)"/>
<mask id="path-4-inside-2_865_230" fill="white">
<path d="M30 5C32.6522 5 35.1957 6.05357 37.0711 7.92893C38.9464 9.8043 40 12.3478 40 15C40 17.6522 38.9464 20.1957 37.0711 22.0711C35.1957 23.9464 32.6522 25 30 25L30 15L30 5Z"/>
</mask>
<path d="M30 5C32.6522 5 35.1957 6.05357 37.0711 7.92893C38.9464 9.8043 40 12.3478 40 15C40 17.6522 38.9464 20.1957 37.0711 22.0711C35.1957 23.9464 32.6522 25 30 25L30 15L30 5Z" fill="black" stroke="black" stroke-width="2" mask="url(#path-4-inside-2_865_230)"/>
</svg>
