<svg width="14" height="12" viewBox="0 0 14 12" fill="none" xmlns="http://www.w3.org/2000/svg">
<path d="M12.7273 0H1.27273C0.572727 0 0 0.6 0 1.33333V10.6667C0 11.4 0.572727 12 1.27273 12H12.7273C13.4273 12 14 11.4 14 10.6667V1.33333C14 0.6 13.4273 0 12.7273 0ZM6.36364 5.33333H1.90909C1.55909 5.33333 1.27273 5.03333 1.27273 4.66667C1.27273 4.3 1.55909 4 1.90909 4H6.36364C6.71364 4 7 4.3 7 4.66667C7 5.03333 6.71364 5.33333 6.36364 5.33333ZM6.36364 2.66667H1.90909C1.55909 2.66667 1.27273 2.36667 1.27273 2C1.27273 1.63333 1.55909 1.33333 1.90909 1.33333H6.36364C6.71364 1.33333 7 1.63333 7 2C7 2.36667 6.71364 2.66667 6.36364 2.66667Z" fill="#416BFF"/>
</svg>
