<svg width="51" height="30" viewBox="0 0 51 30" fill="none" xmlns="http://www.w3.org/2000/svg">
<rect x="0.997803" y="0.500854" width="49" height="29" rx="9.5" stroke="#141414"/>
<g clip-path="url(#clip0_0_1)">
<path d="M25.496 5.50085L25.365 5.93371V18.4941L25.496 18.6212L31.4942 15.1749L25.496 5.50085Z" fill="#343434"/>
<path d="M25.496 5.50085L19.4978 15.1749L25.496 18.6213V12.5248V5.50085Z" fill="#8C8C8C"/>
<path d="M25.496 19.7252L25.4221 19.8127V24.287L25.496 24.4966L31.4978 16.2806L25.496 19.7252Z" fill="#3C3C3B"/>
<path d="M25.496 24.4965V19.7251L19.4978 16.2805L25.496 24.4965Z" fill="#8C8C8C"/>
<path d="M25.496 18.6212L31.4941 15.1749L25.496 12.5249V18.6212Z" fill="#141414"/>
<path d="M19.4978 15.1749L25.496 18.6212V12.5249L19.4978 15.1749Z" fill="#393939"/>
</g>
<defs>
<clipPath id="clip0_0_1">
<rect width="12" height="19" fill="white" transform="translate(19.4978 5.50085)"/>
</clipPath>
</defs>
</svg>
