<svg width="15" height="18" viewBox="0 0 15 18" fill="none" xmlns="http://www.w3.org/2000/svg">
<path d="M1.98529 0.283691C1.45876 0.283691 0.953794 0.492856 0.581479 0.865171C0.209165 1.23749 0 1.74245 0 2.26899V15.9455C0 16.472 0.209165 16.977 0.581479 17.3493C0.953794 17.7216 1.45876 17.9307 1.98529 17.9307H8.60294C9.12628 17.9308 9.62846 17.7242 10.0002 17.3558C10.372 16.9875 10.5834 16.4873 10.5882 15.964V14.6228C10.5882 14.4473 10.5185 14.279 10.3944 14.1549C10.2703 14.0308 10.102 13.961 9.92647 13.961C9.52588 13.961 9.27353 13.8525 9.09971 13.7122C8.91618 13.5649 8.76441 13.3372 8.64971 13.016C8.40882 12.3499 8.38235 11.4719 8.38235 10.6513C8.38234 10.4836 8.31864 10.3221 8.20412 10.1996L8.05941 10.0434C8.01183 9.9902 7.96177 9.93926 7.90941 9.89075C7.84412 9.82899 7.64471 9.63928 6.86471 8.86016C6.45176 8.44634 6.22235 8.09693 6.14735 7.82957C6.11728 7.73691 6.11271 7.63785 6.13412 7.54281C6.16703 7.43319 6.22928 7.33464 6.31412 7.25781C6.39065 7.17303 6.48889 7.11079 6.59824 7.07781C6.69306 7.05671 6.79183 7.06159 6.88412 7.09193C7.15147 7.16693 7.50088 7.39722 7.91471 7.81104C8.39118 8.28751 8.84294 8.73399 9.24794 9.13457C9.91853 9.7981 10.4603 10.3346 10.7656 10.661C10.8853 10.7895 11.0511 10.8652 11.2266 10.8714C11.4021 10.8776 11.5728 10.8138 11.7013 10.6941C11.8298 10.5744 11.9055 10.4086 11.9117 10.2331C11.9179 10.0576 11.8541 9.88687 11.7344 9.7584C11.3586 9.36555 10.9761 8.97903 10.5874 8.59899V5.63075L13.095 8.1384C13.4674 8.51075 13.6765 9.01546 13.6765 9.54134V17.269C13.6765 17.4445 13.7462 17.6128 13.8703 17.7369C13.9944 17.861 14.1627 17.9307 14.3382 17.9307C14.5137 17.9307 14.6821 17.861 14.8062 17.7369C14.9303 17.6128 15 17.4445 15 17.269V9.54222C15.0001 9.10767 14.9146 8.67736 14.7483 8.27586C14.5821 7.87436 14.3384 7.50954 14.0312 7.20222L10.5882 3.75928V2.2681C10.588 1.74172 10.3787 1.23698 10.0064 0.864859C9.63416 0.492735 9.12932 0.283691 8.60294 0.283691H1.98529ZM8.27029 14.7437C8.56063 14.9759 8.90111 15.1373 9.26471 15.2149V15.2837H8.60294C8.42743 15.2837 8.25911 15.3534 8.135 15.4775C8.0109 15.6016 7.94118 15.7699 7.94118 15.9455V16.6072H6.61765V15.9455C6.61765 15.1575 7.07647 14.4763 7.74265 14.156C7.88382 14.3713 8.05765 14.5725 8.27029 14.7437ZM7.05971 10.9125C7.06147 11.1357 7.06676 11.3766 7.08 11.6272C6.66914 11.9182 6.19337 12.1044 5.69411 12.1695C5.19485 12.2345 4.68725 12.1765 4.21553 12.0006C3.7438 11.8246 3.32226 11.5359 2.98762 11.1598C2.65297 10.7836 2.41538 10.3313 2.29552 9.84228C2.17567 9.35328 2.17719 8.84238 2.29996 8.3541C2.42273 7.86581 2.66301 7.41495 2.99989 7.04078C3.33678 6.6666 3.76003 6.38047 4.23279 6.2073C4.70556 6.03413 5.21349 5.97918 5.71235 6.04722C5.59412 6.12575 5.48294 6.21751 5.37794 6.32252C5.12029 6.58016 4.93765 6.8784 4.85206 7.21369C4.76559 7.54899 4.78676 7.87899 4.87324 8.18781C5.04088 8.78163 5.46 9.32693 5.92941 9.79634C6.28855 10.1596 6.65241 10.5181 7.02088 10.8719L7.02441 10.8746L7.05618 10.909L7.05971 10.9125ZM2.64706 1.60722H3.97059V2.26899C3.97059 2.79552 3.76142 3.30049 3.38911 3.6728C3.01679 4.04512 2.51183 4.25428 1.98529 4.25428H1.32353V2.93075H1.98529C2.1608 2.93075 2.32913 2.86103 2.45323 2.73692C2.57734 2.61282 2.64706 2.4445 2.64706 2.26899V1.60722ZM6.61765 1.60722H7.94118V2.26899C7.94118 2.63428 8.23765 2.93075 8.60294 2.93075H9.26471V4.25428H8.60294C8.07641 4.25428 7.57144 4.04512 7.19913 3.6728C6.82681 3.30049 6.61765 2.79552 6.61765 2.26899V1.60722ZM3.97059 16.6072H2.64706V15.9455C2.64706 15.7699 2.57734 15.6016 2.45323 15.4775C2.32913 15.3534 2.1608 15.2837 1.98529 15.2837H1.32353V13.9602H1.98529C2.51183 13.9602 3.01679 14.1693 3.38911 14.5416C3.76142 14.914 3.97059 15.4189 3.97059 15.9455V16.6072Z" fill="#416BFF"/>
</svg>
