<svg width="14" height="17" viewBox="0 0 14 17" fill="none" xmlns="http://www.w3.org/2000/svg">
<path fill-rule="evenodd" clip-rule="evenodd" d="M7.00001 0.127289C6.31001 0.127289 5.15701 0.392289 4.07201 0.687289C2.96201 0.987289 1.84301 1.34229 1.18501 1.55729C0.909897 1.64814 0.665996 1.81475 0.481322 2.03799C0.296648 2.26123 0.178693 2.53203 0.141005 2.81929C-0.454995 7.29629 0.928005 10.6143 2.60601 12.8093C3.31759 13.7482 4.16603 14.5751 5.12301 15.2623C5.50901 15.5353 5.86701 15.7443 6.17101 15.8873C6.45101 16.0193 6.75201 16.1273 7.00001 16.1273C7.24801 16.1273 7.54801 16.0193 7.82901 15.8873C8.19549 15.7092 8.5461 15.5001 8.87701 15.2623C9.834 14.5751 10.6824 13.7483 11.394 12.8093C13.072 10.6143 14.455 7.29629 13.859 2.81929C13.8214 2.53189 13.7035 2.26093 13.5188 2.03752C13.3341 1.81411 13.0902 1.64732 12.815 1.55629C11.8598 1.2431 10.8972 0.953018 9.92801 0.686289C8.84301 0.393289 7.69001 0.127289 7.00001 0.127289ZM7.00001 5.12729C7.35424 5.12676 7.69724 5.25162 7.96824 5.47975C8.23924 5.70788 8.42076 6.02456 8.48065 6.3737C8.54054 6.72284 8.47493 7.08191 8.29544 7.38731C8.11595 7.69271 7.83417 7.92474 7.50001 8.04229L7.88501 10.0323C7.89901 10.1047 7.89684 10.1792 7.87865 10.2507C7.86045 10.3221 7.82668 10.3887 7.77976 10.4455C7.73284 10.5024 7.67392 10.5482 7.60723 10.5796C7.54054 10.611 7.46773 10.6273 7.39401 10.6273H6.60601C6.53237 10.6272 6.45967 10.6108 6.3931 10.5793C6.32653 10.5478 6.26774 10.502 6.22093 10.4451C6.17412 10.3883 6.14044 10.3218 6.1223 10.2504C6.10416 10.1791 6.10201 10.1046 6.11601 10.0323L6.50001 8.04229C6.16584 7.92474 5.88406 7.69271 5.70457 7.38731C5.52508 7.08191 5.45947 6.72284 5.51936 6.3737C5.57925 6.02456 5.76077 5.70788 6.03177 5.47975C6.30277 5.25162 6.64577 5.12676 7.00001 5.12729Z" fill="#416BFF"/>
</svg>
