<svg width="105" height="105" viewBox="0 0 105 105" fill="none" xmlns="http://www.w3.org/2000/svg">
<path d="M86.0089 20.2503L48.8662 77.6386C47.4394 79.8686 44.5111 80.5821 42.2184 79.2584L33.6326 74.3014C31.3398 72.9776 30.4936 70.085 31.7114 67.7343L62.8395 6.87267C64.1382 4.36519 67.2675 3.45052 69.7129 4.86235L84.3142 13.2924C86.7596 14.7043 87.5311 17.8719 86.0101 20.251L86.0089 20.2503Z" fill="white"/>
<path d="M45.4756 66.2401C46.3171 66.6058 47.0936 67.0509 47.9004 67.4726C50.0799 68.4194 50.4473 70.0406 48.7673 72.5883L48.5953 72.8487C48.279 73.3286 48.0262 73.8331 47.7013 74.3265C47.0236 75.3532 46.8113 75.1978 44.7082 74.5251C43.9038 74.2714 43.1498 73.9858 42.3591 73.6847L42.1849 73.6146C42.0857 73.5741 41.9775 73.5493 41.8782 73.5088C40.7489 73.0547 39.5862 72.5516 38.5404 71.9695C38.3493 71.8744 38.1502 71.7947 37.9716 71.7044C37.86 71.6591 37.7275 71.6235 37.6161 71.5792C36.597 71.1687 35.621 70.7029 34.6186 70.226C33.9618 69.8331 35.198 67.7406 35.3549 67.4202C36.4613 65.1654 37.9261 63.3803 39.3084 63.7778C39.8854 63.9371 40.4342 64.1201 40.9805 64.3394C41.0459 64.3676 41.117 64.4166 41.1827 64.4457C41.9058 64.7599 42.6362 65.0598 43.3967 65.3355L45.4742 66.2385L45.4756 66.2401ZM39.7549 69.8604C40.5383 70.1837 41.305 70.4293 42.0896 70.7533C42.3295 70.8526 42.5454 70.9949 42.798 71.0998C43.0768 71.2151 43.4182 71.2496 43.7052 71.3504C44.5832 71.6779 45.4529 72.0198 46.349 72.3201C46.564 72.4097 46.6554 72.3416 46.7959 72.119C47.2195 71.4519 47.6174 70.3855 47.0441 69.8951C46.443 69.3918 45.6804 68.9603 44.9687 68.6584C44.7874 68.581 44.5981 68.5189 44.4169 68.4416C43.3049 67.9686 42.2187 67.3078 41.1053 66.8332C40.7692 66.6896 40.414 66.6111 40.0977 66.4582L39.8649 66.359C39.3342 66.1335 38.4394 65.8796 38.0516 66.4833C37.8642 66.7885 37.6775 67.0924 37.4901 67.3976C36.8621 68.7767 36.8324 68.6546 39.753 69.8609L39.7549 69.8604Z" fill="#252122"/>
<path d="M42.6634 59.024C42.8543 59.111 43.0687 59.1531 43.2596 59.2401C43.7779 59.476 44.2657 59.8633 44.7837 60.0983C44.9468 60.1725 45.0773 60.1212 45.1579 59.9747C45.3262 59.6665 45.4481 59.318 45.6245 58.9944C46.2262 57.8926 46.2076 57.6071 47.9838 58.4323C48.8584 58.8379 46.7241 61.0888 47.4052 61.398C47.9223 61.6332 48.4736 61.8105 48.978 62.04L49.8639 62.4426C50.5728 62.7646 51.3654 62.8376 52.0616 63.1539C52.5422 63.2831 53.0998 62.2104 53.2932 61.9046C53.7875 61.1261 53.8888 60.7953 55.0018 61.3137C55.3916 61.4947 55.7248 61.6502 55.5733 61.9377C55.4651 62.1027 55.3427 62.2067 55.2438 62.3571C55.0006 62.727 54.8538 63.1421 54.6011 63.5258C54.5566 63.5946 54.5023 63.6762 54.4429 63.7388C54.1001 64.2603 53.8753 64.8162 53.5323 65.3368C53.2433 65.7748 53.0938 66.081 52.6994 65.9399C52.319 65.8051 51.9112 65.7123 51.5625 65.5558C51.4775 65.5004 51.3701 65.4519 51.2756 65.4102C51.0068 65.2903 50.7211 65.1982 50.4523 65.0783C50.1302 64.934 49.8253 64.7628 49.5033 64.6185C49.2218 64.4928 48.8916 64.4167 48.6091 64.2913C48.4348 64.2131 48.3093 64.139 48.1479 64.0675C45.5969 62.9287 42.9697 61.9943 40.477 60.8836C40.2763 60.7941 40.0827 60.6896 39.8808 60.5995C39.7067 60.5222 39.5308 60.4799 39.3558 60.4029C38.9405 60.2176 39.4742 58.8963 39.7952 58.2404C39.9816 57.8594 40.2372 57.5095 40.4238 57.1294C40.5739 56.8251 40.7169 56.4983 40.8741 56.1788L41.009 55.905L41.0688 55.7834C41.3454 55.2196 42.2312 55.7431 42.8414 56.0265C43.4517 56.3099 43.0287 56.8011 42.8061 57.2366C42.7519 57.3415 42.6922 57.4256 42.5937 57.585C42.2863 58.1854 41.7911 58.6269 42.6634 59.024Z" fill="#252122"/>
<path d="M46.2236 51.5438C46.5105 51.6823 46.7749 51.8654 47.0619 52.0038C47.7081 52.3152 48.4167 52.5449 49.064 52.8569C49.7966 53.2102 50.493 53.565 51.2406 53.9253C51.5427 54.0709 51.8531 54.202 52.1401 54.3405C52.2404 54.3888 52.3326 54.4524 52.4478 54.5069C53.8418 55.1796 55.3951 55.6542 56.7768 56.3221C56.9147 56.3705 57.0344 56.3018 57.1316 56.1488C57.5204 55.5378 57.7782 54.8623 58.1187 54.2642C58.4187 53.7917 59.9917 54.5292 60.0795 54.5727C60.5638 54.8107 59.5919 56.3997 59.4199 56.6601C58.9673 57.3441 57.8441 59.1301 57.4012 59.0091C56.4365 58.7485 55.5759 58.4479 54.6832 58.0238L54.3852 57.8822C54.2432 57.8146 54.0928 57.7615 53.951 57.6948C53.7241 57.587 53.5011 57.4446 53.2741 57.3368C53.0191 57.2152 52.7381 57.1371 52.4831 57.0155C52.1712 56.8675 51.862 56.6842 51.5501 56.5362C50.7843 56.1726 49.9615 55.9106 49.1969 55.5476C48.7861 55.3529 48.3696 55.1365 47.9588 54.9418C47.7041 54.8211 47.441 54.7149 47.172 54.5869C46.9031 54.4588 46.6705 54.3302 46.4006 54.2024L46.1597 54.0881L45.338 53.6979C44.8282 53.4556 44.3045 53.2069 43.7572 53.0031C43.4034 52.8348 43.0846 52.7029 43.3778 52.1103C43.9866 50.8796 44.1228 50.5689 45.5456 51.2542C45.5551 51.2591 45.557 51.2664 45.5515 51.276C45.7743 51.3646 46.0055 51.4387 46.2212 51.5425L46.2236 51.5438Z" fill="#252122"/>
<path d="M50.3933 44.1329C50.6051 44.2407 50.84 44.3027 51.0518 44.4105C51.6267 44.7024 52.1752 45.1496 52.7498 45.4406C52.9308 45.5323 53.0701 45.4909 53.1504 45.3434C53.3187 45.0352 53.4351 44.681 53.6115 44.3575C54.2132 43.2557 54.1796 42.9559 56.1472 43.9685C57.1157 44.4668 54.9083 46.6459 55.663 47.0287C56.2367 47.3199 56.8446 47.5532 57.4042 47.837L58.3867 48.3345C59.1728 48.7323 60.0373 48.8765 60.8085 49.2681C61.3372 49.4444 61.884 48.3614 62.0776 48.0566C62.5719 47.2781 62.6648 46.9383 63.8966 47.5742C64.328 47.7969 64.6971 47.9875 64.5482 48.2773C64.4401 48.4424 64.3132 48.5414 64.2136 48.693C63.9707 49.0638 63.8336 49.4886 63.5818 49.8719C63.5373 49.9407 63.483 50.0223 63.4221 50.0833C63.0794 50.6048 62.8669 51.1727 62.5239 51.6933C62.2349 52.1313 62.0905 52.4412 61.6538 52.2596C61.2332 52.0848 60.7854 51.9529 60.398 51.7581C60.3022 51.6923 60.1833 51.6317 60.0789 51.5795C59.7808 51.4298 59.4649 51.3082 59.1661 51.1598C58.8082 50.9804 58.4672 50.7731 58.1093 50.5937C57.7961 50.4369 57.434 50.3288 57.1208 50.172C56.9271 50.0746 56.7866 49.9862 56.607 49.8962C53.7739 48.4776 50.8675 47.2674 48.0973 45.8827C47.8734 45.7711 47.6585 45.6438 47.4345 45.5321C47.2411 45.4357 47.0473 45.3759 46.8538 45.2794C46.3918 45.0487 46.9156 43.7169 47.2366 43.061C47.423 42.6799 47.6857 42.3373 47.8732 41.9569C48.0233 41.6526 48.1648 41.3242 48.3211 41.005L48.4559 40.7312L48.5158 40.6095C48.7923 40.0458 49.7776 40.6676 50.4539 41.0156C51.1302 41.3636 50.6922 41.8405 50.4687 42.2762C50.4145 42.3811 50.3533 42.4636 50.2534 42.6214C49.946 43.2218 49.4273 43.6401 50.395 44.1315L50.3933 44.1329Z" fill="#252122"/>
<path d="M55.1188 33.8793C54.9105 34.2845 54.5823 34.6823 55.0958 34.9571C55.9459 35.4119 56.9712 35.8075 57.9186 36.3145L58.336 36.5378C58.8735 36.8073 59.4116 37.0755 59.925 37.3503C60.0852 37.4364 60.238 37.5366 60.3982 37.6227C61.1287 37.9948 61.8675 38.3524 62.6062 38.7477C63.1519 39.0403 63.6567 39.3662 64.2177 39.6669C64.6683 39.8701 65.1776 40.0496 65.595 40.273C65.7551 40.359 65.8828 40.464 66.0274 40.541C66.4448 40.7644 66.8637 40.9518 67.2657 41.1671C67.8443 41.4763 69.0118 41.8795 68.8355 42.3778C68.63 42.7863 68.4706 43.2567 68.2348 43.6124C67.7003 44.4189 66.0164 43.2144 65.2564 42.8117C64.7638 42.5881 64.2712 42.3646 63.7635 42.0964C63.4463 41.9284 63.1485 41.6964 62.8313 41.5285C62.546 41.3774 62.2524 41.2407 61.9671 41.0896C61.2381 40.704 60.5339 40.3126 59.8212 39.9348C59.5678 39.8005 59.3062 39.6807 59.0528 39.5464C58.403 39.2025 57.7782 38.8153 57.1284 38.4714C56.1304 37.9425 53.7677 36.54 53.5665 36.9301C53.304 37.4403 53.0814 38.0271 52.8106 38.5517C52.5939 38.9713 52.008 38.6083 51.4147 38.2969C50.5866 37.8637 50.5936 37.3326 51.0369 36.4357C51.1565 36.1924 51.3247 35.9746 51.4453 35.7311C51.5355 35.5484 51.5785 35.3409 51.6606 35.1736C51.8332 34.8247 52.1262 34.5572 52.2989 34.2083C52.713 33.3731 53.0535 32.4794 53.4593 31.6586C53.7444 31.0814 55.1467 31.9175 55.6516 32.1905C55.8466 32.2967 55.9063 32.4626 55.7989 32.6721C55.668 32.9266 55.4959 33.1789 55.3653 33.4344C55.2876 33.5842 55.1945 33.7259 55.1178 33.8755L55.1188 33.8793Z" fill="#252122"/>
<path d="M68.1657 27.3381C69.2146 27.9317 70.324 28.4632 71.3729 29.0568C72.9388 29.9424 74.8343 30.8261 74.7326 32.3496C74.6636 33.3432 74.5115 34.1021 73.8142 35.1544C72.3297 37.3967 70.4621 36.6701 65.895 34.5957C65.2162 34.2992 64.5791 34.158 63.9437 33.792C62.9533 33.2498 61.9709 32.6161 60.9805 32.074C60.4031 31.7574 59.8329 31.4643 59.24 31.1772C56.9947 29.9474 54.303 28.6473 55.8194 25.5533L55.8498 25.4923C56.0665 25.0503 56.2056 24.5458 56.4223 24.1038C57.6609 21.5728 60.4868 23.1498 64.9579 25.4653L64.9496 25.4797C66.033 26.0924 67.083 26.7242 68.1664 27.3369L68.1657 27.3381ZM67.4274 29.6091C65.2548 28.4685 63.067 27.3584 60.8987 26.2604C60.0531 25.8643 58.7623 25.2777 58.3787 26.0296C57.5281 27.6999 58.9481 27.9461 60.058 28.7142C60.4101 28.948 60.7285 29.1623 61.0971 29.3662C62.452 30.1165 63.9582 30.9877 65.3796 31.5464L65.4798 31.6018C65.7815 31.7688 65.9904 32.0176 66.3077 32.1936C67.9142 33.0826 70.3559 34.8296 71.1405 33.5914C71.8014 32.5479 71.4284 31.7926 70.1375 31.0689C69.2374 30.5645 68.3281 30.1123 67.4197 29.6224L67.428 29.6079L67.4274 29.6091Z" fill="#252122"/>
<path d="M74.0837 24.3293C74.9513 24.8302 75.0919 24.9114 74.7001 25.5415L74.621 25.6673C74.3682 26.0733 74.2907 26.5044 74.0376 26.9095C73.8017 27.2876 72.3872 26.2882 72.4569 26.3284C70.7451 25.3498 68.9664 24.447 67.2549 23.4693C65.0023 22.1816 62.698 20.864 60.5618 19.5257C60.1778 19.3056 59.6036 19.0166 59.8064 18.6057C60.0317 18.1502 60.1871 17.6535 60.4293 17.2077C60.7502 16.6504 62.3771 17.8621 63.1894 18.331C65.9568 19.7734 68.2914 21.1205 71.2168 22.7125C71.2084 22.7269 71.2179 22.7508 71.2179 22.7508C72.1635 23.2775 73.163 23.7969 74.0835 24.3283L74.0837 24.3293ZM78.5462 27.5298C78.3812 27.964 78.2064 28.4487 77.962 28.8179C77.6454 29.2968 76.3715 28.4548 75.9865 28.2349C75.2702 27.8245 75.6783 26.7319 75.9162 26.3574C76.3576 25.6621 76.5428 25.8644 77.4453 26.3854L77.4367 26.3989C77.9138 26.6743 78.7379 27.0548 78.5465 27.5307L78.5462 27.5298Z" fill="#252122"/>
<path d="M33.2937 101.277C39.5092 99.6116 43.1978 93.2228 41.5323 87.0073C39.8669 80.7918 33.4782 77.1033 27.2627 78.7687C21.0472 80.4342 17.3586 86.8229 19.0241 93.0384C20.6895 99.2539 27.0783 102.942 33.2937 101.277Z" fill="white"/>
<path d="M36.4567 96.2399C37.75 94.4676 37.3618 91.9824 35.5894 90.689C33.8171 89.3957 31.3319 89.784 30.0386 91.5563C28.7452 93.3286 29.1335 95.8138 30.9058 97.1072C32.6781 98.4005 35.1634 98.0122 36.4567 96.2399Z" fill="#252122"/>
</svg>
