<svg width="105" height="105" viewBox="0 0 105 105" fill="none" xmlns="http://www.w3.org/2000/svg">
<path d="M86.6746 20.4415L49.5319 77.8297C48.1051 80.0597 45.1768 80.7732 42.8841 79.4495L34.2983 74.4925C32.0055 73.1688 31.1593 70.2761 32.3771 67.9254L63.5052 7.0638C64.8039 4.55632 67.9332 3.64165 70.3786 5.05349L84.9799 13.4836C87.4253 14.8954 88.1968 18.063 86.6758 20.4421L86.6746 20.4415Z" fill="#252122"/>
<path d="M46.1415 66.4312C46.983 66.7969 47.7595 67.242 48.5662 67.6637C50.7458 68.6105 51.1132 70.2317 49.4332 72.7794L49.2612 73.0398C48.9449 73.5197 48.692 74.0242 48.3671 74.5176C47.6895 75.5443 47.4772 75.3889 45.3741 74.7162C44.5697 74.4625 43.8157 74.177 43.025 73.8759L42.8508 73.8057C42.7516 73.7653 42.6433 73.7404 42.5441 73.7C41.4148 73.2458 40.252 72.7428 39.2062 72.1606C39.0152 72.0655 38.8161 71.9858 38.6375 71.8955C38.5258 71.8503 38.3934 71.8147 38.282 71.7704C37.2629 71.3598 36.2869 70.8941 35.2845 70.4171C34.6277 70.0243 35.8638 67.9317 36.0208 67.6113C37.1271 65.3565 38.592 63.5714 39.9743 63.9689C40.5512 64.1282 41.1 64.3113 41.6464 64.5305C41.7118 64.5587 41.7828 64.6077 41.8485 64.6369C42.5716 64.951 43.3021 65.2509 44.0626 65.5266L46.14 66.4296L46.1415 66.4312ZM40.4207 70.0515C41.2042 70.3749 41.9709 70.6204 42.7555 70.9445C42.9954 71.0437 43.2113 71.186 43.4639 71.291C43.7426 71.4062 44.084 71.4407 44.3711 71.5416C45.2491 71.869 46.1188 72.2109 47.0149 72.5112C47.2299 72.6009 47.3213 72.5327 47.4618 72.3102C47.8854 71.6431 48.2832 70.5766 47.71 70.0862C47.1089 69.583 46.3462 69.1514 45.6345 68.8495C45.4533 68.7721 45.264 68.7101 45.0828 68.6327C43.9708 68.1597 42.8846 67.499 41.7711 67.0243C41.435 66.8807 41.0798 66.8022 40.7636 66.6493L40.5308 66.5501C40.0001 66.3246 39.1052 66.0708 38.7175 66.6744C38.53 66.9796 38.3433 67.2836 38.1559 67.5887C37.528 68.9678 37.4983 68.8457 40.4188 70.052L40.4207 70.0515Z" fill="white"/>
<path d="M43.3293 59.2151C43.5202 59.3021 43.7346 59.3442 43.9256 59.4312C44.4438 59.6671 44.9316 60.0545 45.4496 60.2895C45.6127 60.3636 45.7432 60.3124 45.8238 60.1658C45.9921 59.8577 46.1141 59.5091 46.2904 59.1855C46.8921 58.0837 46.8735 57.7982 48.6498 58.6234C49.5243 59.029 47.39 61.28 48.0711 61.5891C48.5882 61.8244 49.1395 62.0017 49.6439 62.2312L50.5298 62.6337C51.2388 62.9557 52.0313 63.0288 52.7275 63.345C53.2081 63.4742 53.7658 62.4015 53.9591 62.0958C54.4534 61.3173 54.5547 60.9864 55.6677 61.5049C56.0575 61.6858 56.3907 61.8414 56.2392 62.1288C56.1311 62.2939 56.0086 62.3978 55.9097 62.5482C55.6665 62.9181 55.5198 63.3333 55.267 63.7169C55.2225 63.7857 55.1682 63.8673 55.1088 63.9299C54.766 64.4514 54.5412 65.0074 54.1982 65.5279C53.9093 65.9659 53.7597 66.2721 53.3654 66.131C52.9849 65.9963 52.5771 65.9034 52.2284 65.7469C52.1435 65.6915 52.036 65.6431 51.9416 65.6014C51.6727 65.4814 51.387 65.3893 51.1182 65.2694C50.7962 65.1251 50.4913 64.9539 50.1692 64.8096C49.8877 64.6839 49.5575 64.6078 49.275 64.4824C49.1007 64.4042 48.9752 64.3301 48.8138 64.2586C46.2629 63.1199 43.6356 62.1854 41.1429 61.0747C40.9422 60.9853 40.7486 60.8807 40.5467 60.7906C40.3726 60.7133 40.1968 60.671 40.0217 60.594C39.6064 60.4087 40.1401 59.0874 40.4611 58.4316C40.6475 58.0505 40.9032 57.7006 41.0898 57.3205C41.2398 57.0162 41.3828 56.6894 41.54 56.37L41.6749 56.0962L41.7347 55.9745C42.0113 55.4108 42.8971 55.9342 43.5074 56.2176C44.1176 56.5011 43.6946 56.9923 43.472 57.4277C43.4179 57.5327 43.3581 57.6167 43.2596 57.7762C42.9523 58.3766 42.457 58.8181 43.3293 59.2151Z" fill="white"/>
<path d="M46.8894 51.735C47.1763 51.8734 47.4407 52.0565 47.7277 52.195C48.3739 52.5063 49.0824 52.736 49.7298 53.0481C50.4623 53.4013 51.1587 53.7561 51.9064 54.1165C52.2085 54.262 52.5189 54.3932 52.8059 54.5316C52.9062 54.5799 52.9984 54.6436 53.1136 54.698C54.5076 55.3707 56.0609 55.8453 57.4426 56.5133C57.5805 56.5616 57.7002 56.493 57.7973 56.34C58.1862 55.7289 58.444 55.0534 58.7845 54.4553C59.0845 53.9829 60.6575 54.7204 60.7453 54.7639C61.2296 55.0018 60.2577 56.5908 60.0857 56.8512C59.6331 57.5352 58.5098 59.3213 58.067 59.2002C57.1023 58.9396 56.2417 58.639 55.349 58.2149L55.051 58.0733C54.909 58.0057 54.7586 57.9526 54.6168 57.886C54.3899 57.7782 54.1668 57.6358 53.9399 57.528C53.6848 57.4064 53.4039 57.3283 53.1489 57.2067C52.837 57.0586 52.5278 56.8753 52.2159 56.7273C51.4501 56.3637 50.6272 56.1017 49.8626 55.7388C49.4519 55.5441 49.0354 55.3276 48.6246 55.1329C48.3698 55.0123 48.1067 54.906 47.8378 54.778C47.5688 54.6499 47.3363 54.5213 47.0664 54.3935L46.8255 54.2793L46.0038 53.889C45.494 53.6467 44.9703 53.398 44.423 53.1942C44.0691 53.0259 43.7504 52.894 44.0436 52.3014C44.6524 51.0707 44.7886 50.76 46.2114 51.4453C46.2209 51.4502 46.2228 51.4575 46.2173 51.4671C46.4401 51.5557 46.6712 51.6299 46.8869 51.7336L46.8894 51.735Z" fill="white"/>
<path d="M51.059 44.324C51.2708 44.4319 51.5058 44.4938 51.7175 44.6017C52.2924 44.8935 52.8409 45.3408 53.4156 45.6317C53.5966 45.7234 53.7358 45.682 53.8161 45.5345C53.9845 45.2263 54.1008 44.8722 54.2772 44.5486C54.8789 43.4468 54.8453 43.147 56.813 44.1597C57.7814 44.6579 55.574 46.837 56.3287 47.2199C56.9024 47.5111 57.5104 47.7443 58.0699 48.0281L59.0524 48.5256C59.8385 48.9234 60.703 49.0676 61.4743 49.4593C62.003 49.6355 62.5498 48.5525 62.7434 48.2477C63.2377 47.4692 63.3305 47.1295 64.5623 47.7654C64.9938 47.988 65.3628 48.1786 65.2139 48.4684C65.1058 48.6335 64.9789 48.7325 64.8794 48.8841C64.6364 49.2549 64.4994 49.6797 64.2476 50.0631C64.203 50.1319 64.1487 50.2135 64.0879 50.2745C63.7451 50.796 63.5326 51.3638 63.1896 51.8844C62.9007 52.3224 62.7562 52.6323 62.3195 52.4507C61.8989 52.276 61.4511 52.144 61.0637 51.9492C60.9679 51.8834 60.8491 51.8229 60.7447 51.7706C60.4465 51.6209 60.1306 51.4994 59.8318 51.3509C59.4739 51.1715 59.1329 50.9642 58.7751 50.7849C58.4618 50.628 58.0997 50.5199 57.7865 50.3631C57.5928 50.2657 57.4523 50.1774 57.2728 50.0873C54.4396 48.6687 51.5333 47.4586 48.763 46.0739C48.5391 45.9622 48.3242 45.8349 48.1002 45.7233C47.9068 45.6268 47.713 45.567 47.5196 45.4705C47.0575 45.2398 47.5813 43.908 47.9023 43.2521C48.0887 42.8711 48.3514 42.5284 48.5389 42.1481C48.689 41.8438 48.8306 41.5153 48.9868 41.1962L49.1217 40.9223L49.1815 40.8007C49.4581 40.237 50.4434 40.8587 51.1197 41.2067C51.7959 41.5547 51.358 42.0316 51.1344 42.4674C51.0803 42.5723 51.0191 42.6547 50.9191 42.8125C50.6118 43.4129 50.0931 43.8312 51.0607 44.3226L51.059 44.324Z" fill="white"/>
<path d="M55.7846 34.0704C55.5762 34.4757 55.2481 34.8734 55.7615 35.1482C56.6117 35.603 57.637 35.9987 58.5844 36.5056L59.0018 36.729C59.5392 36.9984 60.0773 37.2666 60.5908 37.5414C60.751 37.6275 60.9038 37.7277 61.064 37.8138C61.7945 38.1859 62.5333 38.5436 63.272 38.9388C63.8176 39.2314 64.3224 39.5573 64.8835 39.858C65.3341 40.0613 65.8433 40.2407 66.2607 40.4641C66.4209 40.5502 66.5486 40.6551 66.6931 40.7322C67.1105 40.9555 67.5295 41.1429 67.9315 41.3582C68.51 41.6674 69.6775 42.0707 69.5012 42.5689C69.2958 42.9774 69.1364 43.4478 68.9006 43.8035C68.366 44.61 66.6822 43.4055 65.9221 43.0028C65.4295 42.7793 64.9369 42.5557 64.4293 42.2875C64.1121 42.1196 63.8142 41.8875 63.497 41.7196C63.2117 41.5685 62.9181 41.4318 62.6329 41.2808C61.9038 40.8951 61.1997 40.5038 60.4869 40.1259C60.2336 39.9917 59.9719 39.8718 59.7186 39.7376C59.0688 39.3937 58.4439 39.0065 57.7941 38.6626C56.7961 38.1336 54.4335 36.7311 54.2323 37.1212C53.9698 37.6314 53.7471 38.2182 53.4763 38.7428C53.2596 39.1625 52.6738 38.7994 52.0805 38.4881C51.2523 38.0548 51.2593 37.5237 51.7026 36.6269C51.8223 36.3835 51.9905 36.1658 52.1111 35.9222C52.2013 35.7396 52.2442 35.532 52.3264 35.3647C52.499 35.0158 52.792 34.7484 52.9646 34.3994C53.3787 33.5642 53.7193 32.6705 54.125 31.8497C54.4102 31.2726 55.8125 32.1086 56.3174 32.3817C56.5124 32.4879 56.5721 32.6537 56.4647 32.8633C56.3338 33.1178 56.1617 33.3701 56.031 33.6255C55.9534 33.7753 55.8603 33.9171 55.7836 34.0666L55.7846 34.0704Z" fill="white"/>
<path d="M68.8315 27.5293C69.8803 28.1228 70.9898 28.6544 72.0386 29.2479C73.6045 30.1336 75.5 31.0173 75.3983 32.5407C75.3294 33.5343 75.1772 34.2932 74.48 35.3455C72.9955 37.5879 71.1278 36.8613 66.5607 34.7869C65.882 34.4903 65.2449 34.3492 64.6095 33.9831C63.6191 33.441 62.6367 32.8073 61.6463 32.2651C61.0688 31.9485 60.4986 31.6554 59.9057 31.3684C57.6605 30.1386 54.9688 28.8384 56.4851 25.7444L56.5155 25.6835C56.7323 25.2414 56.8713 24.7369 57.0881 24.2949C58.3266 21.7639 61.1525 23.3409 65.6237 25.6564L65.6153 25.6708C66.6988 26.2835 67.7487 26.9153 68.8322 27.5281L68.8315 27.5293ZM68.0931 29.8003C65.9205 28.6597 63.7327 27.5496 61.5644 26.4515C60.7188 26.0554 59.4281 25.4688 59.0444 26.2207C58.1939 27.891 59.6138 28.1372 60.7237 28.9054C61.0758 29.1391 61.3943 29.3534 61.7628 29.5574C63.1177 30.3076 64.6239 31.1788 66.0454 31.7375L66.1455 31.7929C66.4473 31.9599 66.6561 32.2087 66.9735 32.3847C68.5799 33.2737 71.0216 35.0207 71.8062 33.7826C72.4672 32.739 72.0941 31.9837 70.8032 31.26C69.9032 30.7556 68.9938 30.3035 68.0855 29.8135L68.0938 29.7991L68.0931 29.8003Z" fill="white"/>
<path d="M74.7496 24.5204C75.6172 25.0213 75.7578 25.1025 75.3659 25.7326L75.2869 25.8584C75.034 26.2644 74.9566 26.6955 74.7035 27.1006C74.4676 27.4787 73.053 26.4793 73.1227 26.5196C71.411 25.5409 69.6322 24.6381 67.9208 23.6604C65.6681 22.3727 63.3638 21.0551 61.2276 19.7169C60.8436 19.4967 60.2695 19.2077 60.4722 18.7969C60.6976 18.3413 60.853 17.8447 61.0951 17.3989C61.4161 16.8415 63.0429 18.0532 63.8553 18.5222C66.6227 19.9645 68.9572 21.3116 71.8826 22.9036C71.8743 22.918 71.8837 22.9419 71.8837 22.9419C72.8293 23.4686 73.8288 23.988 74.7493 24.5195L74.7496 24.5204ZM79.2121 27.7209C79.0471 28.1552 78.8722 28.6398 78.6278 29.009C78.3112 29.4879 77.0373 28.6459 76.6524 28.4261C75.936 28.0157 76.3441 26.9231 76.582 26.5485C77.0234 25.8533 77.2087 26.0555 78.1111 26.5766L78.1025 26.59C78.5796 26.8655 79.4037 27.246 79.2123 27.7218L79.2121 27.7209Z" fill="white"/>
<path d="M33.9594 101.468C40.1749 99.8027 43.8634 93.4139 42.198 87.1985C40.5326 80.983 34.1438 77.2944 27.9284 78.9599C21.7129 80.6253 18.0243 87.014 19.6898 93.2295C21.3552 99.445 27.7439 103.134 33.9594 101.468Z" fill="#252122"/>
<path d="M37.1225 96.431C38.4158 94.6587 38.0275 92.1735 36.2552 90.8802C34.4829 89.5868 31.9977 89.9751 30.7044 91.7474C29.411 93.5197 29.7993 96.0049 31.5716 97.2983C33.3439 98.5916 35.8291 98.2033 37.1225 96.431Z" fill="white"/>
</svg>
