<svg width="51" height="30" viewBox="0 0 51 30" fill="none" xmlns="http://www.w3.org/2000/svg">
<rect x="0.888733" y="0.5" width="49" height="29" rx="9.5" stroke="#113984"/>
<path fill-rule="evenodd" clip-rule="evenodd" d="M14.2828 11.025C15.2568 11.025 16.1556 11.5534 16.0326 12.8702C15.8836 14.4352 15.0452 15.3012 13.7224 15.3049H12.5665C12.4004 15.3049 12.3199 15.4405 12.2767 15.7185L12.0531 17.1397C12.0195 17.3543 11.9092 17.4601 11.7468 17.4601H10.6714C10.5 17.4601 10.4404 17.3506 10.4784 17.1054L11.366 11.4096C11.4099 11.1294 11.515 11.025 11.7065 11.025H14.2806H14.2828ZM12.5315 14.0745H13.4072C13.9549 14.0537 14.3186 13.6743 14.3551 12.9902C14.3775 12.5677 14.092 12.2651 13.6382 12.2673L12.814 12.2711L12.5315 14.0745ZM18.9562 17.0242C19.0545 16.9347 19.1544 16.8885 19.1403 16.9988L19.1052 17.2626C19.0873 17.4005 19.1417 17.4735 19.2699 17.4735H20.2253C20.3863 17.4735 20.4645 17.4087 20.504 17.1598L21.0928 13.4649C21.1226 13.2794 21.0771 13.1884 20.9363 13.1884H19.8855C19.7908 13.1884 19.7446 13.2413 19.72 13.3859L19.6813 13.6132C19.6612 13.7317 19.6068 13.7526 19.5561 13.6333C19.378 13.2115 18.9234 13.0222 18.2892 13.0372C16.8159 13.0677 15.8225 14.1863 15.7159 15.6201C15.6339 16.729 16.4283 17.6002 17.4761 17.6002C18.2363 17.6002 18.5761 17.3766 18.9592 17.0264L18.9562 17.0242ZM18.1558 16.4555C17.5216 16.4555 17.0797 15.9495 17.1713 15.3295C17.263 14.7095 17.8562 14.2034 18.4904 14.2034C19.1246 14.2034 19.5665 14.7095 19.4749 15.3295C19.3832 15.9495 18.7907 16.4555 18.1558 16.4555ZM22.9626 13.1765H21.9937C21.794 13.1765 21.7128 13.3256 21.7761 13.5089L22.9789 17.0309L21.7992 18.7069C21.7001 18.847 21.7769 18.9744 21.9162 18.9744H23.005C23.0685 18.9818 23.1327 18.9707 23.1901 18.9426C23.2474 18.9144 23.2954 18.8704 23.3285 18.8157L27.0278 13.5096C27.1418 13.3464 27.0882 13.175 26.9011 13.175H25.8705C25.6938 13.175 25.623 13.2451 25.5217 13.3919L23.9791 15.6276L23.2897 13.3867C23.2495 13.251 23.1489 13.1765 22.9633 13.1765H22.9626Z" fill="#113984"/>
<path fill-rule="evenodd" clip-rule="evenodd" d="M30.8762 11.0249C31.8502 11.0249 32.749 11.5533 32.626 12.8701C32.477 14.4351 31.6386 15.301 30.3158 15.3048H29.1607C28.9945 15.3048 28.914 15.4404 28.8708 15.7184L28.6472 17.1395C28.6137 17.3542 28.5034 17.46 28.3409 17.46H27.2655C27.0941 17.46 27.0345 17.3504 27.0725 17.1053L27.9616 11.4079C28.0056 11.1277 28.1106 11.0234 28.3022 11.0234H30.8762V11.0249ZM29.1249 14.0744H30.0005C30.5483 14.0535 30.912 13.6742 30.9485 12.9901C30.9708 12.5675 30.6854 12.265 30.2316 12.2672L29.4073 12.2709L29.1249 14.0744ZM35.5495 17.024C35.6479 16.9346 35.7478 16.8884 35.7336 16.9987L35.6986 17.2625C35.6807 17.4004 35.7351 17.4734 35.8633 17.4734H36.8187C36.9796 17.4734 37.0579 17.4086 37.0974 17.1597L37.6861 13.4648C37.7159 13.2792 37.6705 13.1883 37.5296 13.1883H36.4803C36.3857 13.1883 36.3395 13.2412 36.3149 13.3858L36.2761 13.6131C36.256 13.7316 36.2016 13.7525 36.151 13.6332C35.9728 13.2114 35.5182 13.0221 34.8841 13.037C33.4107 13.0676 32.4173 14.1862 32.3108 15.62C32.2288 16.7289 33.0232 17.6001 34.071 17.6001C34.8311 17.6001 35.171 17.3765 35.554 17.0263L35.5495 17.024ZM34.7499 16.4554C34.1157 16.4554 33.6738 15.9494 33.7655 15.3294C33.8571 14.7093 34.4503 14.2033 35.0845 14.2033C35.7187 14.2033 36.1606 14.7093 36.069 15.3294C35.9773 15.9494 35.3841 16.4554 34.7499 16.4554ZM39.1565 17.4794H38.0535C38.0343 17.4802 38.0152 17.4768 37.9975 17.4694C37.9798 17.462 37.9639 17.4508 37.951 17.4366C37.9381 17.4224 37.9285 17.4054 37.9229 17.3871C37.9174 17.3687 37.9159 17.3493 37.9186 17.3303L38.8874 11.1926C38.8967 11.1507 38.9198 11.1132 38.9531 11.0861C38.9864 11.059 39.0279 11.044 39.0708 11.0435H40.1737C40.1929 11.0427 40.212 11.0461 40.2298 11.0535C40.2475 11.0608 40.2634 11.0721 40.2762 11.0863C40.2891 11.1005 40.2987 11.1175 40.3043 11.1358C40.3099 11.1542 40.3114 11.1736 40.3086 11.1926L39.3398 17.3303C39.3308 17.3725 39.3078 17.4103 39.2745 17.4377C39.2412 17.4651 39.1996 17.4803 39.1565 17.4809V17.4794Z" fill="#009EE3"/>
</svg>
