<svg width="31" height="9" viewBox="0 0 31 9" fill="none" xmlns="http://www.w3.org/2000/svg">
<path fill-rule="evenodd" clip-rule="evenodd" d="M4.23472 0.52478C5.20875 0.52478 6.10749 1.05315 5.98453 2.36998C5.83548 3.93497 4.9971 4.80093 3.67431 4.80466H2.51845C2.35226 4.80466 2.27178 4.94029 2.22856 5.21826L2.00499 6.63942C1.97145 6.85405 1.86115 6.95987 1.69869 6.95987H0.623322C0.451918 6.95987 0.3923 6.85032 0.430307 6.60514L1.31788 0.909321C1.36185 0.629113 1.46693 0.52478 1.65845 0.52478H4.23249H4.23472ZM2.48343 3.57427H3.35908C3.90682 3.55341 4.27049 3.17408 4.30701 2.48996C4.32937 2.06741 4.04394 1.76485 3.5901 1.76708L2.76587 1.77081L2.48343 3.57427ZM8.90808 6.52391C9.00645 6.43448 9.10631 6.38828 9.09216 6.49857L9.05713 6.76238C9.03924 6.90025 9.09365 6.97328 9.22183 6.97328H10.1772C10.3382 6.97328 10.4164 6.90845 10.4559 6.65954L11.0447 2.96467C11.0745 2.77911 11.029 2.68819 10.8882 2.68819H9.83739C9.74274 2.68819 9.69654 2.7411 9.67195 2.88568L9.63319 3.11297C9.61307 3.23147 9.55867 3.25233 9.50799 3.1331C9.32988 2.71129 8.87529 2.52201 8.2411 2.53691C6.76777 2.56746 5.77438 3.68606 5.66781 5.11989C5.58583 6.2288 6.38025 7.09997 7.42805 7.09997C8.18819 7.09997 8.52801 6.8764 8.91106 6.52614L8.90808 6.52391ZM8.1077 5.9553C7.47351 5.9553 7.03158 5.44928 7.12325 4.82925C7.21491 4.20921 7.80812 3.7032 8.44231 3.7032C9.07651 3.7032 9.51843 4.20921 9.42676 4.82925C9.3351 5.44928 8.74264 5.9553 8.1077 5.9553ZM12.9145 2.67627H11.9457C11.7459 2.67627 11.6647 2.82531 11.728 3.00864L12.9309 6.53062L11.7511 8.20665C11.652 8.34675 11.7288 8.47418 11.8682 8.47418H12.9569C13.0204 8.48152 13.0846 8.47046 13.142 8.44231C13.1993 8.41417 13.2473 8.37013 13.2804 8.31545L16.9797 3.00939C17.0937 2.84618 17.0401 2.67478 16.853 2.67478H15.8224C15.6457 2.67478 15.5749 2.74483 15.4736 2.89164L13.931 5.12734L13.2416 2.88643C13.2014 2.75079 13.1008 2.67627 12.9152 2.67627H12.9145Z" fill="white"/>
<path fill-rule="evenodd" clip-rule="evenodd" d="M20.8281 0.524655C21.8021 0.524655 22.7009 1.05303 22.5779 2.36985C22.4289 3.93484 21.5905 4.8008 20.2677 4.80453H19.1126C18.9464 4.80453 18.8659 4.94016 18.8227 5.21813L18.5991 6.63929C18.5656 6.85392 18.4553 6.95975 18.2928 6.95975H17.2174C17.046 6.95975 16.9864 6.8502 17.0244 6.60501L17.9135 0.907704C17.9575 0.627496 18.0625 0.523163 18.2541 0.523163H20.8281V0.524655ZM19.0768 3.57415H19.9524C20.5002 3.55328 20.8639 3.17396 20.9004 2.48983C20.9227 2.06729 20.6373 1.76472 20.1835 1.76696L19.3592 1.77069L19.0768 3.57415ZM25.5015 6.52378C25.5998 6.43436 25.6997 6.38815 25.6855 6.49845L25.6505 6.76226C25.6326 6.90013 25.687 6.97316 25.8152 6.97316H26.7706C26.9316 6.97316 27.0098 6.90832 27.0493 6.65942L27.638 2.96455C27.6678 2.77899 27.6224 2.68807 27.4815 2.68807H26.4322C26.3376 2.68807 26.2914 2.74098 26.2668 2.88555L26.2281 3.11285C26.2079 3.23134 26.1535 3.25221 26.1029 3.13297C25.9247 2.71117 25.4702 2.52188 24.836 2.53678C23.3626 2.56734 22.3692 3.68594 22.2627 5.11976C22.1807 6.22867 22.9751 7.09985 24.0229 7.09985C24.783 7.09985 25.1229 6.87628 25.5059 6.52602L25.5015 6.52378ZM24.7018 5.95517C24.0676 5.95517 23.6257 5.44916 23.7174 4.82912C23.809 4.20909 24.4022 3.70307 25.0364 3.70307C25.6706 3.70307 26.1125 4.20909 26.0209 4.82912C25.9292 5.44916 25.336 5.95517 24.7018 5.95517ZM29.1084 6.97912H28.0054C27.9862 6.97998 27.9671 6.97659 27.9494 6.96919C27.9317 6.9618 27.9158 6.95058 27.9029 6.93635C27.89 6.92211 27.8804 6.9052 27.8748 6.88683C27.8693 6.86846 27.8678 6.84908 27.8705 6.83007L28.8393 0.692332C28.8486 0.650443 28.8717 0.612917 28.905 0.585855C28.9383 0.558794 28.9798 0.543791 29.0227 0.543286H30.1256C30.1448 0.542427 30.1639 0.545816 30.1817 0.553211C30.1994 0.560605 30.2153 0.571822 30.2281 0.58606C30.241 0.600299 30.2506 0.617207 30.2562 0.635578C30.2618 0.653948 30.2633 0.673328 30.2605 0.692332L29.2917 6.83007C29.2828 6.87224 29.2597 6.91011 29.2264 6.93746C29.1931 6.96481 29.1515 6.98003 29.1084 6.98061V6.97912Z" fill="white"/>
</svg>
