<svg width="13" height="14" viewBox="0 0 13 14" fill="none" xmlns="http://www.w3.org/2000/svg">
<path d="M6.5 0.147217C5.21442 0.147217 3.95771 0.528435 2.8888 1.24266C1.81988 1.95689 0.986755 2.97205 0.494786 4.15977C0.00281634 5.34749 -0.125905 6.65443 0.124899 7.9153C0.375702 9.17618 0.994767 10.3344 1.90381 11.2434C2.81285 12.1524 3.97104 12.7715 5.23191 13.0223C6.49279 13.2731 7.79972 13.1444 8.98744 12.6524C10.1752 12.1605 11.1903 11.3273 11.9046 10.2584C12.6188 9.1895 13 7.93279 13 6.64722C13 4.92331 12.3152 3.27001 11.0962 2.05102C9.87721 0.832036 8.22391 0.147217 6.5 0.147217ZM9.28572 8.50436C9.28572 8.75063 9.18788 8.98682 9.01374 9.16096C8.8396 9.3351 8.60342 9.43293 8.35714 9.43293H4.64286C4.39659 9.43293 4.1604 9.3351 3.98626 9.16096C3.81212 8.98682 3.71429 8.75063 3.71429 8.50436V4.79007C3.71429 4.5438 3.81212 4.30761 3.98626 4.13347C4.1604 3.95933 4.39659 3.8615 4.64286 3.8615H8.35714C8.60342 3.8615 8.8396 3.95933 9.01374 4.13347C9.18788 4.30761 9.28572 4.5438 9.28572 4.79007V8.50436Z" fill="#416BFF"/>
</svg>
