<svg width="14" height="15" viewBox="0 0 14 15" fill="none" xmlns="http://www.w3.org/2000/svg">
<path d="M6.993 0.960449C3.129 0.960449 0 4.09645 0 7.96045C0 11.8244 3.129 14.9604 6.993 14.9604C10.864 14.9604 14 11.8244 14 7.96045C14 4.09645 10.864 0.960449 6.993 0.960449ZM9.8 10.7604C9.73524 10.8253 9.65832 10.8768 9.57364 10.912C9.48896 10.9471 9.39818 10.9652 9.3065 10.9652C9.21482 10.9652 9.12404 10.9471 9.03936 10.912C8.95468 10.8768 8.87776 10.8253 8.813 10.7604L6.51 8.45745C6.44386 8.39262 6.39124 8.31531 6.35519 8.22999C6.31914 8.14468 6.30038 8.05306 6.3 7.96045V5.16045C6.3 4.77545 6.615 4.46045 7 4.46045C7.385 4.46045 7.7 4.77545 7.7 5.16045V7.67345L9.8 9.77345C10.073 10.0464 10.073 10.4874 9.8 10.7604Z" fill="#416BFF"/>
</svg>
